<svg width="1283" height="209" viewBox="0 0 1283 209" fill="none" xmlns="http://www.w3.org/2000/svg">
<path d="M130.2 57.4H111.6C110.5 52.05 108.575 47.35 105.825 43.3C103.125 39.25 99.825 35.85 95.925 33.1C92.075 30.3 87.8 28.2 83.1 26.8C78.4 25.4 73.5 24.7 68.4 24.7C59.1 24.7 50.675 27.05 43.125 31.75C35.625 36.45 29.65 43.375 25.2 52.525C20.8 61.675 18.6 72.9 18.6 86.2C18.6 99.5 20.8 110.725 25.2 119.875C29.65 129.025 35.625 135.95 43.125 140.65C50.675 145.35 59.1 147.7 68.4 147.7C73.5 147.7 78.4 147 83.1 145.6C87.8 144.2 92.075 142.125 95.925 139.375C99.825 136.575 103.125 133.15 105.825 129.1C108.575 125 110.5 120.3 111.6 115H130.2C128.8 122.85 126.25 129.875 122.55 136.075C118.85 142.275 114.25 147.55 108.75 151.9C103.25 156.2 97.075 159.475 90.225 161.725C83.425 163.975 76.15 165.1 68.4 165.1C55.3 165.1 43.65 161.9 33.45 155.5C23.25 149.1 15.225 140 9.375 128.2C3.525 116.4 0.600001 102.4 0.600001 86.2C0.600001 70 3.525 56 9.375 44.2C15.225 32.4 23.25 23.3 33.45 16.9C43.65 10.5 55.3 7.29999 68.4 7.29999C76.15 7.29999 83.425 8.42499 90.225 10.675C97.075 12.925 103.25 16.225 108.75 20.575C114.25 24.875 118.85 30.125 122.55 36.325C126.25 42.475 128.8 49.5 130.2 57.4ZM191.756 165.7C184.456 165.7 177.831 164.325 171.881 161.575C165.931 158.775 161.206 154.75 157.706 149.5C154.206 144.2 152.456 137.8 152.456 130.3C152.456 123.7 153.756 118.35 156.356 114.25C158.956 110.1 162.431 106.85 166.781 104.5C171.131 102.15 175.931 100.4 181.181 99.25C186.481 98.05 191.806 97.1 197.156 96.4C204.156 95.5 209.831 94.825 214.181 94.375C218.581 93.875 221.781 93.05 223.781 91.9C225.831 90.75 226.856 88.75 226.856 85.9V85.3C226.856 77.9 224.831 72.15 220.781 68.05C216.781 63.95 210.706 61.9 202.556 61.9C194.106 61.9 187.481 63.75 182.681 67.45C177.881 71.15 174.506 75.1 172.556 79.3L155.756 73.3C158.756 66.3 162.756 60.85 167.756 56.95C172.806 53 178.306 50.25 184.256 48.7C190.256 47.1 196.156 46.3 201.956 46.3C205.656 46.3 209.906 46.75 214.706 47.65C219.556 48.5 224.231 50.275 228.731 52.975C233.281 55.675 237.056 59.75 240.056 65.2C243.056 70.65 244.556 77.95 244.556 87.1V163H226.856V147.4H225.956C224.756 149.9 222.756 152.575 219.956 155.425C217.156 158.275 213.431 160.7 208.781 162.7C204.131 164.7 198.456 165.7 191.756 165.7ZM194.456 149.8C201.456 149.8 207.356 148.425 212.156 145.675C217.006 142.925 220.656 139.375 223.106 135.025C225.606 130.675 226.856 126.1 226.856 121.3V105.1C226.106 106 224.456 106.825 221.906 107.575C219.406 108.275 216.506 108.9 213.206 109.45C209.956 109.95 206.781 110.4 203.681 110.8C200.631 111.15 198.156 111.45 196.256 111.7C191.656 112.3 187.356 113.275 183.356 114.625C179.406 115.925 176.206 117.9 173.756 120.55C171.356 123.15 170.156 126.7 170.156 131.2C170.156 137.35 172.431 142 176.981 145.15C181.581 148.25 187.406 149.8 194.456 149.8ZM276.863 163V47.8H293.963V65.2H295.163C297.263 59.5 301.063 54.875 306.563 51.325C312.063 47.775 318.263 46 325.163 46C326.463 46 328.088 46.025 330.038 46.075C331.988 46.125 333.463 46.2 334.463 46.3V64.3C333.863 64.15 332.488 63.925 330.338 63.625C328.238 63.275 326.013 63.1 323.663 63.1C318.063 63.1 313.063 64.275 308.663 66.625C304.313 68.925 300.863 72.125 298.313 76.225C295.813 80.275 294.563 84.9 294.563 90.1V163H276.863Z" fill="black"/>
<path d="M435.919 53.575C435.319 47.525 432.744 42.825 428.194 39.475C423.644 36.125 417.469 34.45 409.669 34.45C404.369 34.45 399.894 35.2 396.244 36.7C392.594 38.15 389.794 40.175 387.844 42.775C385.944 45.375 384.994 48.325 384.994 51.625C384.894 54.375 385.469 56.775 386.719 58.825C388.019 60.875 389.794 62.65 392.044 64.15C394.294 65.6 396.894 66.875 399.844 67.975C402.794 69.025 405.944 69.925 409.294 70.675L423.094 73.975C429.794 75.475 435.944 77.475 441.544 79.975C447.144 82.475 451.994 85.55 456.094 89.2C460.194 92.85 463.369 97.15 465.619 102.1C467.919 107.05 469.094 112.725 469.144 119.125C469.094 128.525 466.694 136.675 461.944 143.575C457.244 150.425 450.444 155.75 441.544 159.55C432.694 163.3 422.019 165.175 409.519 165.175C397.119 165.175 386.319 163.275 377.119 159.475C367.969 155.675 360.819 150.05 355.669 142.6C350.569 135.1 347.894 125.825 347.644 114.775H379.069C379.419 119.925 380.894 124.225 383.494 127.675C386.144 131.075 389.669 133.65 394.069 135.4C398.519 137.1 403.544 137.95 409.144 137.95C414.644 137.95 419.419 137.15 423.469 135.55C427.569 133.95 430.744 131.725 432.994 128.875C435.244 126.025 436.369 122.75 436.369 119.05C436.369 115.6 435.344 112.7 433.294 110.35C431.294 108 428.344 106 424.444 104.35C420.594 102.7 415.869 101.2 410.269 99.85L393.544 95.65C380.594 92.5 370.369 87.575 362.869 80.875C355.369 74.175 351.644 65.15 351.694 53.8C351.644 44.5 354.119 36.375 359.119 29.425C364.169 22.475 371.094 17.05 379.894 13.15C388.694 9.24999 398.694 7.29999 409.894 7.29999C421.294 7.29999 431.244 9.24999 439.744 13.15C448.294 17.05 454.944 22.475 459.694 29.425C464.444 36.375 466.894 44.425 467.044 53.575H435.919ZM490.388 206.2V47.8H521.888V67.15H523.313C524.713 64.05 526.738 60.9 529.388 57.7C532.088 54.45 535.588 51.75 539.888 49.6C544.238 47.4 549.638 46.3 556.088 46.3C564.488 46.3 572.238 48.5 579.338 52.9C586.438 57.25 592.113 63.825 596.363 72.625C600.613 81.375 602.738 92.35 602.738 105.55C602.738 118.4 600.663 129.25 596.513 138.1C592.413 146.9 586.813 153.575 579.713 158.125C572.663 162.625 564.763 164.875 556.013 164.875C549.813 164.875 544.538 163.85 540.188 161.8C535.888 159.75 532.363 157.175 529.613 154.075C526.863 150.925 524.763 147.75 523.313 144.55H522.338V206.2H490.388ZM521.663 105.4C521.663 112.25 522.613 118.225 524.513 123.325C526.413 128.425 529.163 132.4 532.763 135.25C536.363 138.05 540.738 139.45 545.888 139.45C551.088 139.45 555.488 138.025 559.088 135.175C562.688 132.275 565.413 128.275 567.263 123.175C569.163 118.025 570.113 112.1 570.113 105.4C570.113 98.75 569.188 92.9 567.338 87.85C565.488 82.8 562.763 78.85 559.163 76C555.563 73.15 551.138 71.725 545.888 71.725C540.688 71.725 536.288 73.1 532.688 75.85C529.138 78.6 526.413 82.5 524.513 87.55C522.613 92.6 521.663 98.55 521.663 105.4ZM676.088 165.25C664.438 165.25 654.363 162.775 645.863 157.825C637.413 152.825 630.888 145.875 626.288 136.975C621.688 128.025 619.388 117.65 619.388 105.85C619.388 93.95 621.688 83.55 626.288 74.65C630.888 65.7 637.413 58.75 645.863 53.8C654.363 48.8 664.438 46.3 676.088 46.3C687.738 46.3 697.788 48.8 706.238 53.8C714.738 58.75 721.288 65.7 725.888 74.65C730.488 83.55 732.788 93.95 732.788 105.85C732.788 117.65 730.488 128.025 725.888 136.975C721.288 145.875 714.738 152.825 706.238 157.825C697.788 162.775 687.738 165.25 676.088 165.25ZM676.238 140.5C681.538 140.5 685.963 139 689.513 136C693.063 132.95 695.738 128.8 697.538 123.55C699.388 118.3 700.313 112.325 700.313 105.625C700.313 98.925 699.388 92.95 697.538 87.7C695.738 82.45 693.063 78.3 689.513 75.25C685.963 72.2 681.538 70.675 676.238 70.675C670.888 70.675 666.388 72.2 662.738 75.25C659.138 78.3 656.413 82.45 654.563 87.7C652.763 92.95 651.863 98.925 651.863 105.625C651.863 112.325 652.763 118.3 654.563 123.55C656.413 128.8 659.138 132.95 662.738 136C666.388 139 670.888 140.5 676.238 140.5ZM814.838 47.8V71.8H745.463V47.8H814.838ZM761.213 20.2H793.163V127.6C793.163 130.55 793.613 132.85 794.513 134.5C795.413 136.1 796.663 137.225 798.263 137.875C799.913 138.525 801.813 138.85 803.963 138.85C805.463 138.85 806.963 138.725 808.463 138.475C809.963 138.175 811.113 137.95 811.913 137.8L816.938 161.575C815.338 162.075 813.088 162.65 810.188 163.3C807.288 164 803.763 164.425 799.613 164.575C791.913 164.875 785.163 163.85 779.363 161.5C773.613 159.15 769.138 155.5 765.938 150.55C762.738 145.6 761.163 139.35 761.213 131.8V20.2ZM870.075 9.39999V163H838.125V9.39999H870.075ZM895.669 163V47.8H927.619V163H895.669ZM911.719 32.95C906.969 32.95 902.894 31.375 899.494 28.225C896.144 25.025 894.469 21.2 894.469 16.75C894.469 12.35 896.144 8.57499 899.494 5.42499C902.894 2.22499 906.969 0.624983 911.719 0.624983C916.469 0.624983 920.519 2.22499 923.869 5.42499C927.269 8.57499 928.969 12.35 928.969 16.75C928.969 21.2 927.269 25.025 923.869 28.225C920.519 31.375 916.469 32.95 911.719 32.95ZM1005.11 208.6C994.763 208.6 985.888 207.175 978.488 204.325C971.138 201.525 965.288 197.7 960.938 192.85C956.588 188 953.763 182.55 952.463 176.5L982.013 172.525C982.913 174.825 984.338 176.975 986.288 178.975C988.238 180.975 990.813 182.575 994.013 183.775C997.263 185.025 1001.21 185.65 1005.86 185.65C1012.81 185.65 1018.54 183.95 1023.04 180.55C1027.59 177.2 1029.86 171.575 1029.86 163.675V142.6H1028.51C1027.11 145.8 1025.01 148.825 1022.21 151.675C1019.41 154.525 1015.81 156.85 1011.41 158.65C1007.01 160.45 1001.76 161.35 995.663 161.35C987.013 161.35 979.138 159.35 972.038 155.35C964.988 151.3 959.363 145.125 955.163 136.825C951.013 128.475 948.938 117.925 948.938 105.175C948.938 92.125 951.063 81.225 955.313 72.475C959.563 63.725 965.213 57.175 972.263 52.825C979.363 48.475 987.138 46.3 995.588 46.3C1002.04 46.3 1007.44 47.4 1011.79 49.6C1016.14 51.75 1019.64 54.45 1022.29 57.7C1024.99 60.9 1027.06 64.05 1028.51 67.15H1029.71V47.8H1061.44V164.125C1061.44 173.925 1059.04 182.125 1054.24 188.725C1049.44 195.325 1042.79 200.275 1034.29 203.575C1025.84 206.925 1016.11 208.6 1005.11 208.6ZM1005.79 137.35C1010.94 137.35 1015.29 136.075 1018.84 133.525C1022.44 130.925 1025.19 127.225 1027.09 122.425C1029.04 117.575 1030.01 111.775 1030.01 105.025C1030.01 98.275 1029.06 92.425 1027.16 87.475C1025.26 82.475 1022.51 78.6 1018.91 75.85C1015.31 73.1 1010.94 71.725 1005.79 71.725C1000.54 71.725 996.113 73.15 992.513 76C988.913 78.8 986.188 82.7 984.338 87.7C982.488 92.7 981.563 98.475 981.563 105.025C981.563 111.675 982.488 117.425 984.338 122.275C986.238 127.075 988.963 130.8 992.513 133.45C996.113 136.05 1000.54 137.35 1005.79 137.35ZM1118.81 96.4V163H1086.86V9.39999H1117.91V68.125H1119.26C1121.86 61.325 1126.06 56 1131.86 52.15C1137.66 48.25 1144.94 46.3 1153.69 46.3C1161.69 46.3 1168.66 48.05 1174.61 51.55C1180.61 55 1185.26 59.975 1188.56 66.475C1191.91 72.925 1193.56 80.65 1193.51 89.65V163H1161.56V95.35C1161.61 88.25 1159.81 82.725 1156.16 78.775C1152.56 74.825 1147.51 72.85 1141.01 72.85C1136.66 72.85 1132.81 73.775 1129.46 75.625C1126.16 77.475 1123.56 80.175 1121.66 83.725C1119.81 87.225 1118.86 91.45 1118.81 96.4ZM1279.93 47.8V71.8H1210.56V47.8H1279.93ZM1226.31 20.2H1258.26V127.6C1258.26 130.55 1258.71 132.85 1259.61 134.5C1260.51 136.1 1261.76 137.225 1263.36 137.875C1265.01 138.525 1266.91 138.85 1269.06 138.85C1270.56 138.85 1272.06 138.725 1273.56 138.475C1275.06 138.175 1276.21 137.95 1277.01 137.8L1282.03 161.575C1280.43 162.075 1278.18 162.65 1275.28 163.3C1272.38 164 1268.86 164.425 1264.71 164.575C1257.01 164.875 1250.26 163.85 1244.46 161.5C1238.71 159.15 1234.23 155.5 1231.03 150.55C1227.83 145.6 1226.26 139.35 1226.31 131.8V20.2Z" fill="#4770FF"/>
</svg>
